C:\GBW_MyPrograms\KinderuniversiteitApp\Resultaten\Ellis\Kleuter\Kleuter_v4.mot
version=1
nRows=8
nColumns=29
inDegrees=yes
endheader
                time	         pelvis_tilt	           pelvis_tx	           pelvis_ty	       hip_flexion_l	       hip_flexion_r	        knee_angle_l	        knee_angle_r	       ankle_angle_l	       ankle_angle_r	    lumbar_extension	hamstrings_r/activation	bifemsh_r/activation	glut_max_r/activation	iliopsoas_r/activation	rect_fem_r/activation	  vasti_r/activation	gastroc_r/activation	 soleus_r/activation	tib_ant_r/activation	hamstrings_l/activation	bifemsh_l/activation	glut_max_l/activation	iliopsoas_l/activation	rect_fem_l/activation	  vasti_l/activation	gastroc_l/activation	 soleus_l/activation	tib_ant_l/activation	
          1.54677619	         -7.40179418	          0.80821385	          0.90286739	         -3.10340084	         26.50113701	         -1.54135109	         -5.55433627	         14.11060231	          6.12973703	          0.80841177	          0.18110483	          0.05760795	          0.06109107	          0.09150062	          0.05000032	          0.05235047	          0.07002991	          0.05000002	          0.23955022	          0.06182347	          0.32031688	          0.05000001	          0.59711634	          0.05000001	          0.05000000	          0.47450178	          0.43673197	          0.09504130	
          1.56224395	         -7.39558816	          0.82020355	          0.90134673	         -3.35490629	         25.78929842	         -2.67583322	         -5.37251654	         14.65049502	          5.55914751	          1.18583031	          0.16774584	          0.07910240	          0.07495144	          0.07274679	          0.05000002	          0.05000000	          0.07910252	          0.06405563	          0.23715927	          0.07384935	          0.29888418	          0.05000002	          0.55438168	          0.05000001	          0.05000000	          0.48031548	          0.49269763	          0.07556177	
          1.57771171	         -7.38318532	          0.83246797	          0.89989549	         -3.54026834	         25.00904047	         -3.97621770	         -5.35727197	         15.15631792	          4.88323662	          1.58870735	          0.14930685	          0.06288976	          0.13454061	          0.05783672	          0.05000002	          0.05000017	          0.06288979	          0.05092689	          0.30292383	          0.07784619	          0.25879625	          0.05000004	          0.47205447	          0.05000001	          0.05000000	          0.47356357	          0.53780604	          0.06007474	
          1.59317947	         -7.37040885	          0.84462832	          0.89892285	         -3.63456767	         24.26402979	         -5.40419772	         -5.36396011	         15.46561321	          4.10257658	          1.97713066	          0.13614412	          0.05000012	          0.18473602	          0.05000000	          0.05000003	          0.15171472	          0.05000000	          0.05000000	          0.36313780	          0.08134977	          0.22249055	          0.05000002	          0.44828249	          0.05000001	          0.05000000	          0.45015718	          0.56151459	          0.05000000	
          1.60864723	         -7.36183054	          0.85636964	          0.89876801	         -3.61736635	         23.61147448	         -6.92811611	         -5.47055133	         15.46859714	          3.31540277	          2.31859222	          0.11786486	          0.05000004	          0.22213770	          0.05000000	          0.05000006	          0.22167187	          0.05000000	          0.05000000	          0.38319986	          0.07419561	          0.18987100	          0.05000023	          0.43344034	          0.05000001	          0.05000000	          0.41059638	          0.55746667	          0.05000000	
          1.62411499	         -7.35825183	          0.86760072	          0.89948283	         -3.48311833	         23.02057057	         -8.54456681	         -5.63418715	         15.16725698	          2.67179554	          2.60504534	          0.10320608	          0.05000005	          0.22402310	          0.05000000	          0.05000014	          0.25316197	          0.05000000	          0.05000001	          0.37872262	          0.06582440	          0.16060873	          0.05000006	          0.41187412	          0.05000002	          0.05000000	          0.36025266	          0.53052288	          0.05000000	
          1.63958276	         -7.35725411	          0.87839377	          0.90091643	         -3.22938219	         22.43075655	        -10.28235575	         -5.76586451	         14.62088814	          2.22632989	          2.84512235	          0.09318580	          0.05000005	          0.20938296	          0.05000001	          0.05000044	          0.26181663	          0.05000001	          0.05000004	          0.36590065	          0.05863920	          0.12774001	          0.05000003	          0.38267320	          0.05000002	          0.05000000	          0.30548732	          0.48897203	          0.05000000	
          1.65505052	         -7.35556137	          0.88886179	          0.90281496	         -2.85380645	         21.79068300	        -12.17471849	         -5.79167266	         13.90361339	          1.97423690	          3.05092330	          0.08715970	          0.05000005	          0.19606942	          0.05000001	          0.06232151	          0.25798937	          0.05000001	          0.05007178	          0.35508976	          0.05330002	          0.10155885	          0.05000004	          0.34986497	          0.05000003	          0.05000000	          0.25218978	          0.44061046	          0.05000000	
